# xmcd
#
# Track frame offsets: 
#        150
#        13641
#        26337
#        37836
#        50487
#        64132
#        77583
#        90599
#        104041
#        117049
#        131015
#        149752
#        165849
#        177273
#        190296
#        202820
#        216268
#        229361
#        243738
#
# Disc length: 3420 seconds
#
# Revision: 0
# Processed by: cddbd v1.5.2PL0 Copyright (c) Steve Scherf et al.
# Submitted via: ExactAudioCopy v0.95b4
#
DISCID=060d5a13
DTITLE=Robert Johnson and Friends - Crossroad Blues V3
DYEAR=1999
DGENRE=Blues
TTITLE0=Good Morning Blues - Sonny Boy Williamson
TTITLE1=I Been Dealing With The Devil - Sonny Boy Williamson
TTITLE2=Got The Bottle Up And Go - Sonny Boy Williamson
TTITLE3=Early In The Morning - Sonny Boy Williamson
TTITLE4=Lord, Oh Lord - Sonny Boy Williamson
TTITLE5=T.B. Blues - Sonny Boy Williamson
TTITLE6=Jivin' The Blues - Sonny Boy Williamson
TTITLE7=Shotgun Blues - Sonny Boy Williamson
TTITLE8=Good Morning Blues - Leadbelly
TTITLE9=Midnight Special - Leadbelly
TTITLE10=C.C. Rider - Leadbelly
TTITLE11=Leavin' Blues - Leadbelly
TTITLE12=Rock Island Line - Leadbelly
TTITLE13=Goodnight Irene - Leadbelly
TTITLE14=I Feel So Good - Big Bill Bronzy
TTITLE15=Wee Wee Hours - Big Bill Bronzy
TTITLE16=I'm Gonna Move To The Outskirts Of Town - Big Bill Bronzy
TTITLE17=Horny Frog - Big Bill Bronzy
TTITLE18=Bull Cow Blues - Big Bill Bronzy
EXTD=
EXTT0=
EXTT1=
EXTT2=
EXTT3=
EXTT4=
EXTT5=
EXTT6=
EXTT7=
EXTT8=
EXTT9=
EXTT10=
EXTT11=
EXTT12=
EXTT13=
EXTT14=
EXTT15=
EXTT16=
EXTT17=
EXTT18=
PLAYORDER=
